<svg xmlns="http://www.w3.org/2000/svg" viewBox="0 0 123.67 56.91"><g id="be4692e7-cf2c-4af6-9803-2db0759eafcf" data-name="Layer 2"><g id="b125e73c-e34d-4b59-a650-8b8af1abd928" data-name="Layer 1"><g id="b494c944-5c72-4397-9667-58247ead5da6" data-name="Hovedgruppe"><path d="M0,.44H4.72l9.84,15a38.88,38.88,0,0,1,2.16,4h.07s-.25-2.49-.25-4V.44h4.68v26H16.54l-9.84-15a39.15,39.15,0,0,1-2.16-4H4.46s.26,2.49.26,4v15H0Z" fill="#003c65"/><path d="M39.08,0A13.13,13.13,0,0,1,52.51,13.25a13.43,13.43,0,1,1-26.86,0A13.13,13.13,0,0,1,39.08,0Zm0,22.54c4.75,0,8.56-3.95,8.56-9.29a8.57,8.57,0,1,0-17.12,0C30.52,18.59,34.32,22.54,39.08,22.54Z" fill="none"/><path d="M56.93.44h8.38c2.82,0,4.1.22,5.24.73a7.35,7.35,0,0,1,4.24,7.1,7.49,7.49,0,0,1-4.39,7.1v.07a6.92,6.92,0,0,1,.88,1.28l5.34,9.7H71.35l-5.16-9.7H61.65v9.7H56.93Zm9,12.18A3.77,3.77,0,0,0,70,8.53c0-2.49-1.06-4-4.76-4H61.65v8.12Z" fill="#003c65"/><path d="M86,4.5H77.5V.44H99.27V4.5H90.74V26.42H86Z" fill="#003c65"/><path d="M102.34.44h4.72v11H119V.44h4.72v26H119V15.51H107.06V26.42h-4.72Z" fill="#003c65"/><path d="M15.67,33.53s-.52,2.41-1,4.06L9.26,56.91h-2L.56,31.3H2.2L7.62,52.15c.33,1.25.62,2.75.62,2.75h.07s.33-1.47.7-2.75L14.86,31.3h1.76l5.85,20.85c.37,1.28.66,2.75.7,2.75h.07s.29-1.5.62-2.75l5.6-20.85h1.65L24.19,56.91h-2L16.8,37.59c-.47-1.65-1-4.06-1-4.06h-.14Z" fill="#003c65"/><path d="M38.46,31.3H40V56.91H38.46Z" fill="#003c65" opacity="0"/><path d="M49.84,31.3h1.47L65.9,51.38C66.75,52.56,68,54.6,68,54.6h.07s-.18-1.94-.18-3.22V31.3h1.57V56.91H68L53.39,36.82c-.84-1.17-2.08-3.22-2.08-3.22h-.08s.18,1.94.18,3.22V56.91H49.84Z" fill="#003c65"/><path d="M79.26,31.3h8c7.61,0,12.77,4.68,12.77,12.8S94.92,56.91,87.31,56.91h-8Zm7.79,24.15c6.81,0,11.38-4,11.38-11.35S93.86,32.76,87.05,32.76H80.83V55.45Z" fill="#003c65"/><rect id="b46920bc-659a-4bd0-b2a9-d7a310729bf0" data-name="I" x="38.45" y="18.59" width="1.59" height="38.32" fill="#03b3cf"/><g id="eb93aa27-d758-4d0e-a02f-f9ae23050a91" data-name="Turbin"><g id="ad2195d7-b8a3-4306-b856-ab9d686b81e8" data-name="Vind"><path d="M36.28,25.76a12.8,12.8,0,0,1-1.93-.63l-.47-.2-.45-.23a5.05,5.05,0,0,1-.45-.25c-.15-.08-.29-.17-.43-.26a12.38,12.38,0,0,1-3-2.69,12.76,12.76,0,0,1-1.16-1.67A14.29,14.29,0,0,1,27.46,18a13,13,0,0,1-.86-4,11.8,11.8,0,0,1,0-2.06,4.35,4.35,0,0,1,.06-.52,4.5,4.5,0,0,1,.08-.51l.1-.51.12-.5c.08-.34.2-.67.3-1l0-.12,0-.13.1-.24c.06-.16.12-.32.19-.48l.22-.48c0-.07.07-.15.11-.23L28.13,7l.24-.46.28-.45a13.11,13.11,0,0,1,2.78-3.12,3.32,3.32,0,0,1,.42-.32l.42-.31L32.71,2l.23-.14.23-.13.46-.26.47-.23.24-.11.25-.1.49-.2.35,1A12.43,12.43,0,0,0,32,3.68,12.1,12.1,0,0,0,29.3,6.5L29,6.9l-.26.43-.12.21-.12.22-.23.43-.2.45-.1.23,0,.11,0,.12c-.11.31-.24.62-.33.94l-.14.47-.12.49c0,.16-.07.32-.1.48s-.06.33-.08.5A12,12,0,0,0,27,14a12.44,12.44,0,0,0,2.59,7.47A13.83,13.83,0,0,0,31,22.93l.38.34.39.31.41.3c.14.11.28.2.42.29A11.92,11.92,0,0,0,36.28,25.76Z" fill="#03b3cf"/><path d="M42.8,26.09a13.41,13.41,0,0,0,2-.77l.48-.24.46-.27c.15-.08.3-.19.44-.28l.23-.15.21-.15c.29-.2.56-.43.84-.65l.39-.35.38-.37a12.32,12.32,0,0,0,1.36-1.61,14.29,14.29,0,0,0,1.08-1.8,13.67,13.67,0,0,0,.78-1.95A13.35,13.35,0,0,0,52,13.39a13.75,13.75,0,0,0-.7-4.07,13.11,13.11,0,0,0-1.9-3.63,13.33,13.33,0,0,0-2.91-2.85,12.6,12.6,0,0,0-3.64-1.79v0a12,12,0,0,1,3.58,1.84,12.38,12.38,0,0,1,2.78,2.91,12.59,12.59,0,0,1,1.71,3.61,12.84,12.84,0,0,1-.24,7.82,12.51,12.51,0,0,1-.8,1.79,13.21,13.21,0,0,1-1.07,1.64A12.42,12.42,0,0,1,46,23.37,12.12,12.12,0,0,1,42.49,25Z" fill="#03b3cf"/></g><g id="a8404d90-d638-447a-925f-7ebec7ddf306" data-name="Blader"><path d="M36.1,12.27l-7.56,1.86a.16.16,0,0,0-.14.21.22.22,0,0,0,.24.2l7.83.23a3,3,0,0,1-.37-2.5Z" fill="#03b3cf"/><path d="M38.24,15.52a2.31,2.31,0,1,0,1.83-4.25,2.31,2.31,0,1,0-1.83,4.25Z" fill="#03b3cf"/><path d="M42,14.84A3.19,3.19,0,0,1,40,16.33l5.53,5.55a.17.17,0,0,0,.27,0,.21.21,0,0,0,.08-.28Z" fill="#03b3cf"/><path d="M41.57,11.07l2-7.37a.21.21,0,0,0-.12-.28.2.2,0,0,0-.28.11L39.2,10a3.41,3.41,0,0,1,1.29.28,3.26,3.26,0,0,1,1.08.75Z" fill="#03b3cf"/></g></g></g></g></g></svg>